<!DOCTYPE svg PUBLIC "-//W3C//DTD SVG 1.1//EN" "http://www.w3.org/Graphics/SVG/1.1/DTD/svg11.dtd">
<!-- Uploaded to: SVG Repo, www.svgrepo.com, Transformed by: SVG Repo Mixer Tools -->
<svg width="224px" height="224px" viewBox="-3.2 -3.2 38.40 38.40" style="fill-rule:evenodd;clip-rule:evenodd;stroke-linecap:round;stroke-linejoin:round;stroke-miterlimit:1.5;" version="1.1" xml:space="preserve" xmlns="http://www.w3.org/2000/svg" xmlns:serif="http://www.serif.com/" xmlns:xlink="http://www.w3.org/1999/xlink" fill="#000000">
<g id="SVGRepo_bgCarrier" stroke-width="0"/>
<g id="SVGRepo_iconCarrier"> <g id="Icon"> <path d="M12.023,23.997l-0.002,-0c-1.105,-0 -2.002,0.897 -2.002,2.001c0,1.105 0.897,2.002 2.002,2.002c1.105,0 2.002,-0.897 2.002,-2.002l-0,-7.122c-0,-0 6.001,-0.75 6.001,-0.75l0.002,3.867c-1.105,0 -2.002,0.897 -2.002,2.002c0,1.105 0.897,2.002 2.002,2.002c1.105,-0 2.002,-0.897 2.002,-2.002l-0.005,-7.003c-0.001,-0.286 -0.124,-0.559 -0.339,-0.749c-0.215,-0.189 -0.501,-0.278 -0.785,-0.242l-8,1c-0.501,0.062 -0.876,0.488 -0.876,0.992l-0,6.004Z"/> <path d="M9,21.866c-2.587,-0.667 -4.5,-3.017 -4.5,-5.811c0,-3.119 2.385,-5.685 5.428,-5.973c0.288,-3.044 2.854,-5.428 5.973,-5.428c3.132,-0 5.706,2.404 5.977,5.465c2.895,0.426 5.121,2.923 5.121,5.936c-0,1.775 -0.773,3.37 -1.999,4.469" style="fill:none;stroke:#000000;stroke-width:2px;"/> </g> </g>
</svg>